<?xml version="1.0" standalone="no"?>
<!DOCTYPE svg PUBLIC "-//W3C//DTD SVG 20010904//EN"
 "http://www.w3.org/TR/2001/REC-SVG-20010904/DTD/svg10.dtd">
<svg version="1.0" xmlns="http://www.w3.org/2000/svg"
 width="300.000000pt" height="168.000000pt" viewBox="0 0 300.000000 168.000000"
 preserveAspectRatio="xMidYMid meet">

<g transform="translate(0.000000,168.000000) scale(0.100000,-0.100000)"
fill="#E50915" stroke="none">
<path d="M280 797 l0 -323 48 6 47 5 5 175 5 175 57 -164 c32 -90 59 -165 60
-166 2 -2 27 0 56 2 l52 6 0 303 0 304 -50 0 -50 0 -2 -180 -3 -181 -65 181
-64 180 -48 0 -48 0 0 -323z"/>
<path d="M710 821 l0 -298 48 4 c26 2 90 7 142 11 l95 7 3 48 3 49 -96 -7 -96
-7 3 78 3 79 68 3 67 3 0 44 0 45 -70 0 -70 0 0 70 0 69 93 3 92 3 3 48 3 47
-145 0 -146 0 0 -299z"/>
<path d="M1070 1070 l0 -50 50 0 50 0 0 -235 0 -235 34 0 c69 0 66 -12 66 241
l0 229 55 0 55 0 0 50 0 50 -155 0 -155 0 0 -50z"/>
<path d="M1450 840 l0 -280 50 0 50 0 0 115 0 115 70 0 70 0 0 50 0 50 -70 0
-70 0 0 65 0 65 90 0 90 0 0 50 0 50 -140 0 -140 0 0 -280z"/>
<path d="M1800 835 l0 -285 73 0 c39 0 102 -3 140 -7 l67 -6 0 52 0 51 -74 0
c-41 0 -81 3 -90 6 -14 5 -16 36 -16 240 l0 234 -50 0 -50 0 0 -285z"/>
<path d="M2170 825 l0 -295 50 0 50 0 0 295 0 295 -50 0 -50 0 0 -295z"/>
<path d="M2360 1118 c0 -2 26 -70 59 -152 l58 -150 -63 -145 c-70 -158 -70
-163 1 -159 39 3 40 3 76 87 l37 84 14 -34 c8 -19 25 -62 37 -96 22 -58 26
-63 60 -68 20 -4 46 -8 58 -11 l23 -4 -21 52 c-67 170 -109 282 -109 293 0 7
29 78 64 159 l64 146 -55 0 -54 0 -27 -62 c-15 -35 -33 -74 -38 -88 -10 -23
-13 -19 -44 63 l-33 87 -54 0 c-29 0 -53 -1 -53 -2z"/>
</g>
</svg>
